<svg id="Layer_1" data-name="Layer 1" xmlns="http://www.w3.org/2000/svg" viewBox="0 0 300 450"><defs><style>.cls-1{fill:#eb872b;}</style></defs><path class="cls-1" d="M14.37-1.3l7.82.8-24,24-.8-7.81A15.49,15.49,0,0,1,14.37-1.3Z"/><path class="cls-1" d="M285.17,450.48l-7.81-.8,24-24,.8,7.81A15.49,15.49,0,0,1,285.17,450.48Z"/><path class="cls-1" d="M-1.61,433.49l.8-7.81,24,24-7.82.8A15.49,15.49,0,0,1-1.61,433.49Z"/><path class="cls-1" d="M302.16,15.69l-.8,7.81-24-24,7.81-.8A15.49,15.49,0,0,1,302.16,15.69Z"/></svg>